# xmcd
#
# Track frame offsets:
#	150
#	14785
#	28022
#	39677
#	54470
#	65860
#	81075
#	95657
#	108080
#	117745
#	129212
#	142925
#	161925
#	174832
#	189692
#	203145
#	219100
#	232155
#	246262
#	262317
#	273760
#	290515
#	302612
#
# Disc length: 4231 seconds
#
# Revision: 0
# Processed by: cddbd v1.5.2PL0 Copyright (c) Steve Scherf et al.
# Submitted via: EasyCDDAExtractor 16.0.6.1
#
DISCID=5b108517
DTITLE=Συλλογικός δίσκος - Μικρά Ασία, 1972-Βυζαντινός Εσπερινός, 1973
DYEAR=1991
DGENRE=Έντεχνη λαϊκή
TTITLE0=Νταλάρας Γιώργος - Μέσ' στου Βοσπόρου τα στενά [ΜΑ, Απ. Καλδάρα-Πυθαγό
TTITLE0=ρα]
TTITLE1=Νταλάρας Γιώργος - Οι καμπάνες της Αγια Σοφιάς [ΜΑ, Απ. Καλδάρα-Πυθαγό
TTITLE1=ρα]
TTITLE2=Αλεξίου Χάρις - Δυό παλληκάρια απ' τ' Αϊβαλί [ΜΑ, Απ. Καλδάρα-Πυθαγόρα
TTITLE2=]
TTITLE3=Νταλάρας Γιώργος - Η προσφυγιά [ΜΑ, Απ. Καλδάρα-Πυθαγόρα]
TTITLE4=Νταλάρας Γιώργος - Πέτρα-πέτρα χτίσαμε [ΜΑ, Απ. Καλδάρα-Πυθαγόρα]
TTITLE5=Νταλάρας Γιώργος - Η Σμύρνη [ΜΑ, Απ. Καλδάρα-Πυθαγόρα]
TTITLE6=Νταλάρας Γιώργος - Γιορτή Ζεϊμπέκηδων [ΜΑ, Απ. Καλδάρα-Πυθαγόρα]
TTITLE7=Νταλάρας Γιώργος - Το σπίτι μου το πατρικό [ΜΑ, Απ. Καλδάρα-Πυθαγόρα]
TTITLE8=Αλεξίου Χάρις - Πήρε φωτιά το Κορδελιό [ΜΑ, Απ. Καλδάρα-Πυθαγόρα]
TTITLE9=Νταλάρας Γιώργος - Τι να θυμηθώ τι να ξεχάσω [ΜΑ, Απ. Καλδάρα-Πυθαγόρα
TTITLE9=]
TTITLE10=Αλεξίου Χάρις - Ο Μαρμαρωμένος Βασιλιάς [ΜΑ, Απ. Καλδάρα-Πυθαγόρα]
TTITLE11=Νταλάρας Γιώργος - Εκεί που σμίγει η Δύση κι η Ανατολή [ΒΕ, Απ. Καλδά
TTITLE11=ρα-Λ. Παπαδόπουλου]
TTITLE12=Αλεξίου Χάρις - Βάρα νταγερέ [ΒΕ, Απ. Καλδάρα-Λ. Παπαδόπουλου]
TTITLE13=Νταλάρας Γιώργος - Για πάρε γύφτο σφυρί κι αμόνι [ΒΕ, Απ. Καλδάρα-Λ. 
TTITLE13=Παπαδόπουλου]
TTITLE14=Αλεξίου Χάρις - Καμπάνα του εσπερινού [ΒΕ, Απ. Καλδάρα-Λ. Παπαδόπουλο
TTITLE14=υ]
TTITLE15=Νταλάρας Γιώργος - Για πάρε μάνα [ΒΕ, Απ. Καλδάρα-Λ. Παπαδόπουλου]
TTITLE16=Άνευ ερμηνευτού - Απτάλικο (ορχήστρα) [ΒΕ, Απ. Καλδάρα-Λ. Παπαδόπουλο
TTITLE16=υ]
TTITLE17=Νταλάρας Γιώργος - Αχ και νά 'μουνα το παλληκάρι [ΒΕ, Απ. Καλδάρα-Λ. 
TTITLE17=Παπαδόπουλου]
TTITLE18=Νταλάρας Γιώργος - Με βρήκε ο χάρος [ΒΕ, Απ. Καλδάρα-Λ. Παπαδόπουλου]
TTITLE19=Αλεξίου Χάρις - Στην ξενητειά [ΒΕ, Απ. Καλδάρα-Λ. Παπαδόπουλου]
TTITLE20=Νταλάρας Γιώργος - Κάπου νυχτώνει [ΒΕ, Απ. Καλδάρα-Λ. Παπαδόπουλου]
TTITLE21=Αλεξίου Χάρις - Τα χεράκια μου δεμένα [ΒΕ, Απ. Καλδάρα-Λ. Παπαδόπουλο
TTITLE21=υ]
TTITLE22=Νταλάρας Γιώργος - Η Παναγιά [ΒΕ, Απ. Καλδάρα-Λ. Παπαδόπουλου]
EXTD=
EXTT0=
EXTT1=
EXTT2=
EXTT3=
EXTT4=
EXTT5=
EXTT6=
EXTT7=
EXTT8=
EXTT9=
EXTT10=
EXTT11=
EXTT12=
EXTT13=
EXTT14=
EXTT15=
EXTT16=
EXTT17=
EXTT18=
EXTT19=
EXTT20=
EXTT21=
EXTT22=
PLAYORDER=
